<?xml version="1.0" encoding="utf-8"?>
<!-- Generator: Adobe Illustrator 24.0.0, SVG Export Plug-In . SVG Version: 6.00 Build 0)  -->
<svg version="1.1" id="Layer_1" xmlns="http://www.w3.org/2000/svg" xmlns:xlink="http://www.w3.org/1999/xlink" x="0px" y="0px"
	 viewBox="0 0 450 100" style="enable-background:new 0 0 450 100;" xml:space="preserve">
<style type="text/css">
	.st0{fill:none;stroke:#1D1D1B;stroke-width:2;stroke-linecap:round;stroke-miterlimit:10;}
	.st1{fill:#1D1D1B;}
	.st2{fill:none;stroke:#1D1D1B;stroke-miterlimit:10;}
	.st3{fill:none;stroke:#1D1D1B;stroke-width:1.2;stroke-miterlimit:10;}
</style>
<g>
	<path class="st0" d="M143,84.5h164"/>
	<path class="st1" d="M146.2,80.1h-2.3V62.8h2.3v7.4h8.9v-7.4h2.3v17.4h-2.3v-7.9h-8.9V80.1z"/>
	<path class="st1" d="M170.5,80.1c-2.4,0-4.8-1-6.5-2.7c-3.5-3.6-3.5-9.4,0-13c0.9-0.9,1.9-1.5,3-2c1.1-0.5,2.3-0.7,3.5-0.7l0,0
		c1.2,0,2.4,0.3,3.5,0.7c1.1,0.5,2.1,1.1,3,2c1.8,1.7,2.7,4.1,2.7,6.5c0.1,2.5-0.9,4.8-2.6,6.5C175.2,79.2,172.9,80.1,170.5,80.1z
		 M170.5,78L170.5,78h0.2c1.8,0,3.5-0.7,4.7-2c2.6-2.8,2.6-7.2,0-10.1c-1.2-1.3-2.9-2-4.7-2h-0.2h-0.2c-1.8,0-3.5,0.7-4.7,2
		c-1.3,1.4-2,3.2-2,5c-0.1,1.9,0.7,3.7,2,5c1.3,1.3,3,2,4.7,2H170.5z"/>
	<path class="st1" d="M186.7,80.1h-2.3V62.8h6.1c1.4,0,2.8,0.6,3.8,1.5c2,1.8,2.2,5,0.4,7c-0.1,0.1-0.3,0.3-0.4,0.4
		c-1,1-2.4,1.5-3.8,1.5h-0.1h-3.8C186.7,73.1,186.7,80.1,186.7,80.1z M186.7,64.9v6h3.8c0.8,0,1.6-0.3,2.2-0.9
		c0.6-0.6,0.9-1.3,1-2.2c0-0.8-0.4-1.6-1-2.2c-0.6-0.6-1.4-0.9-2.2-0.9L186.7,64.9z"/>
	<path class="st1" d="M210.5,75c0.1,1.4-0.6,2.8-1.6,3.7c-1.1,0.9-2.6,1.4-4,1.4c-1.4,0-2.7-0.5-3.7-1.3c-1.1-0.9-1.9-2.1-2.2-3.5
		l2.1-0.9c0.2,0.5,0.4,1,0.6,1.4c0.3,0.4,0.6,0.8,0.9,1.1c0.4,0.3,0.7,0.6,1.1,0.7s0.9,0.3,1.3,0.3c0.9,0.1,1.8-0.3,2.4-0.8
		c0.6-0.5,1-1.3,1-2.1c0-0.7-0.3-1.4-0.8-1.9c-0.8-0.7-1.7-1.2-2.7-1.5c-0.9-0.3-1.7-0.7-2.5-1c-1.7-0.7-2.7-2.4-2.7-4.2
		c0-1.3,0.6-2.5,1.5-3.3c1-0.9,2.4-1.4,3.7-1.4c1.2-0.1,2.4,0.4,3.4,1.1c0.9,0.6,1.6,1.5,1.9,2.5l-2,0.9c-0.2-0.7-0.6-1.2-1.1-1.6
		c-1.3-0.9-3-0.9-4.2,0.1c-0.6,0.4-0.9,1.1-0.9,1.8c0,0.6,0.3,1.2,0.7,1.6c1,0.7,2.1,1.2,3.3,1.6c1.4,0.4,2.7,1.2,3.7,2.2
		C210.1,72.7,210.5,73.9,210.5,75z"/>
	<path class="st1" d="M225.1,80.1c-3.6-0.1-6.8-2.4-8.1-5.7c-1.4-3.4-0.7-7.3,1.8-10c1.6-1.8,3.9-2.7,6.3-2.7c2.4-0.1,4.7,1,6.2,2.9
		l-1.6,1.6c-1.1-1.5-2.8-2.3-4.6-2.3c-1.8-0.1-3.5,0.7-4.7,2c-2.5,2.9-2.5,7.2,0,10.1c1.2,1.3,2.9,2,4.7,2c2,0,3.9-1,5.1-2.6
		l1.6,1.6c-0.8,1-1.8,1.8-2.9,2.3C227.6,79.9,226.3,80.1,225.1,80.1z"/>
	<path class="st1" d="M243.8,80.1c-2.4,0-4.8-1-6.5-2.7c-3.5-3.6-3.5-9.4,0-13c0.9-0.9,1.9-1.5,3-2c1.1-0.5,2.3-0.7,3.5-0.7l0,0
		c1.2,0,2.4,0.3,3.5,0.7c1.1,0.5,2.1,1.1,3,2c1.8,1.7,2.7,4.1,2.7,6.5c0.1,2.5-0.9,4.8-2.7,6.5C248.6,79.2,246.2,80.1,243.8,80.1z
		 M243.8,78L243.8,78h0.2c1.8,0,3.5-0.7,4.7-2c2.6-2.8,2.6-7.2,0-10.1c-1.2-1.3-2.9-2-4.7-2h-0.2h-0.2c-1.8,0-3.5,0.7-4.7,2
		c-1.3,1.4-2,3.2-2,5l0,0c-0.1,1.9,0.7,3.7,1.9,5c1.3,1.3,3,2,4.7,2H243.8z"/>
	<path class="st1" d="M263.7,64.9v15.3h-2.2V64.9h-4.7v-2.1h11.6v2.1H263.7z"/>
	<path class="st1" d="M280,80.1c-3.6-0.1-6.8-2.3-8.1-5.7c-1.4-3.4-0.7-7.3,1.8-10c1.6-1.8,3.9-2.7,6.2-2.7c2.4-0.1,4.7,1,6.2,2.9
		l-1.6,1.6c-1.1-1.5-2.8-2.3-4.6-2.3c-1.8-0.1-3.5,0.7-4.7,2c-2.5,2.9-2.5,7.2,0,10.1c1.2,1.3,2.9,2,4.7,2c2,0,3.9-1,5.1-2.6
		l1.6,1.6c-0.8,1-1.8,1.8-2.9,2.3C282.6,79.9,281.4,80.1,280,80.1z"/>
	<path class="st1" d="M293.8,80.1h-2.3V62.8h2.3v7.4h8.9v-7.4h2.3v17.4h-2.3v-7.9h-8.9V80.1z"/>
	<path class="st0" d="M143.9,57.5h37.7"/>
	<path class="st0" d="M187.3,57.5h8.7"/>
	<path class="st0" d="M202.8,57.5h8.7"/>
	<path class="st0" d="M222.1,57.5h8.7"/>
	<path class="st0" d="M241.4,57.5h8.7"/>
	<path class="st0" d="M259.7,57.5h8.7"/>
	<path class="st0" d="M277.1,57.5h8.7"/>
	<path class="st0" d="M296.4,57.5h8.7"/>
	<path class="st1" d="M173.3,57c-0.3,0-0.7-0.1-1-0.2l-0.2-0.1l-2.1-0.5c-0.2-0.1-0.4-0.1-0.6-0.1c-0.8-0.1-1.5-0.4-2.2-0.8
		c-0.2,0-0.4-0.1-0.5-0.1c-0.1,0-0.1-0.1-0.1-0.1h-0.1c-0.2,0-0.4-0.2-0.4-0.4c0-0.3,0.1-0.7,0.1-1l0.1-1.1c0-0.2,0.1-0.3,0.3-0.4
		c-0.1-0.3-0.1-0.6,0.1-0.9c0.2-0.5,0.3-1,0.3-1.5c0.1-1.7-0.6-3.4-1.7-4.8c-0.7-0.9-1.5-1.7-2.4-2.4c0,0.6-0.7,1.2-1.1,1.6
		c-0.6,0.5-1.2,0.9-1.9,1.1c-1.6,0.6-3.2,0.5-4.8-0.1c-2.9-0.9-5.2-3.1-7.3-5.2c-0.2-0.2-0.4-0.4-0.6-0.6v0.4c0,0.4,0.1,0.8,0.3,1.2
		c0.1,0.1,0.1,0.2,0.2,0.2c0.4,0.5,0.7,1.1,0.4,1.7c-0.2,0.4-0.5,0.6-0.9,0.6c-0.8-0.2-1.6-0.6-2.1-1.2c-0.5-0.5-0.9-1-1.1-1.6
		c-0.1-0.3-0.2-0.6-0.1-1c0.1-0.3,0.2-0.7,0.4-1c0.1-0.3,0.3-0.7,0.4-1c0.2-0.5,0.2-0.9,0.2-1.4c0.2-0.5,0.5-1,0.8-1.4
		c0.2-0.2,0.5-0.3,0.7-0.3c0.3,0.1,0.5,0.3,0.6,0.5c0.3,0.6,0.6,1.2,0.8,1.8c0.2,0,0.3-0.1,0.4-0.1c0.8,0.1,1.5,0.3,2.1,0.8
		c1,0.8,2.1,1.2,3.4,1.2c0.1,0,0.2,0,0.3,0c1.3-0.2,2.4-0.7,3.4-1.4c0.9-0.7,2-1.1,3-1.4h0.1c0.1,0,0.1,0,0.2,0.1
		c0.3-0.8,0.6-1.5,0.8-2.3c-0.7-0.1-1.3-0.2-2-0.2c-0.3,0-0.5,0-0.7,0c-0.2,0-0.4-0.2-0.4-0.4c0-0.1,0-0.1,0.1-0.2
		c0.9-1.2,1.8-2.3,2.8-3.4c-0.4-0.1-0.8-0.3-1.1-0.5c-0.3-0.2-0.6-0.5-0.8-0.8C159,29,159,29,158.9,29c-1,0.2-1.9,0.4-2.9,0.7
		c-1.3,0.4-2.6,0.7-3.9,0.7H152c-0.3,1.2-1.1,1.7-2.1,1.7c-0.2,0-0.4-0.1-0.6-0.1c-0.9-0.3-1.4-1.3-1.1-2.2c0.1-0.3,0.3-0.6,0.5-0.8
		c0.6-0.5,1.3-0.8,2-0.9l2.6-0.7l4.2-1.1c-0.1,0.2-0.1,0.5-0.1,0.7v0.1c0,0,0,0.1,0.1,0.1l-6,1.6c-0.1,0.1-0.2,0.1-0.4,0.1
		c-1,0.2-2.5,0.6-2.3,1.7c0.2,0.5,0.7,0.9,1.2,0.8c0.3-0.1,0.6-0.2,0.8-0.3c0.2-0.2,0.6-0.4,0.6-0.7c-0.1-0.2,0.1-0.4,0.3-0.5
		c0.1,0,0.1,0,0.1,0c0.2,0,0.3,0,0.5,0c1.3-0.1,2.6-0.3,3.9-0.8c0.9-0.3,1.9-0.5,2.8-0.7c0-0.1,0-0.2,0-0.2c0-0.3,0.1-0.6,0.1-0.9
		v-0.2c0-0.2,0.1-0.3,0.1-0.4l0.3-0.5c0.3-0.2,0.6-0.2,1-0.2c0.4-0.1,0.7-0.1,1-0.2c0.8-0.2,1.5-0.4,2.3-0.7c1.4-0.5,2.7-1.2,3.9-2
		l0,0h-0.1c-0.7,0-1-0.7-1.3-1.3l-0.1-0.1c-0.1-0.2-0.2-0.5-0.3-0.7l-0.1-0.1l-0.3-0.6c-0.3-0.4-0.4-0.8-0.5-1.2v-0.1
		c-0.1-0.2-0.2-0.4-0.2-0.5c-0.1-0.4,0.1-0.7,0.4-0.9l0.1-0.1c0.3-0.3,0.6-0.6,0.9-0.9c1.2-1,2.7-1.5,4.2-1.5c0.2,0,0.3,0,0.5,0
		c0.9,0.1,1.7,0.4,2.3,1c0.7,0.6,1.1,1.3,1.2,2.2c0,0.1,0,0.2-0.1,0.3c0.4,0.4,0.6,0.9,0.7,1.4c0.2,1.4-0.3,2.7-1.4,3.5
		c-0.6,0.5-1.3,0.7-2,0.8c-0.4,0.1-0.8,0.1-1.1-0.1h-0.1c0.2,0.6,0.6,1.1,1,1.4c0.2,0.2,0.5,0.5,0.7,0.7c0.4,0.3,0.8,0.7,1.1,1.1
		c0.3,0.3,0.3,0.6,0.2,1c0.9,1.3,2,2.4,3.3,3.4c0.3,0.2,0.5,0.4,0.7,0.6c1.4,1,2.4,2.4,3.2,3.9c0.4,1,0.4,2-0.2,2.9
		c-0.3,0.5-0.9,0.8-1.4,0.7h-0.1c-0.8-0.1-1.5-0.7-1.7-1.5c-0.1-0.2-0.1-0.5,0-0.7c0-0.1,0.1-0.1,0.1-0.2c0.1-0.1,0.1-0.2,0.1-0.3
		s-0.3-0.3-0.5-0.4c-0.1-0.1-0.1-0.1-0.2-0.1l-0.6-0.5c-1.6-1.3-3.1-2.7-4.5-4.2c0.5,1.8,0.5,3.7,0.2,5.6c0,0.2-0.2,0.3-0.3,0.3
		l-0.1,0.1c-0.7,0.4-1.5,0.5-2.2,0.3c1.6,1.5,2.7,3.5,3.1,5.7c0.5,3-0.6,5.8-1.8,8.8c-0.1,0.2-0.2,0.3-0.4,0.3c-0.1,0-0.1,0-0.2-0.1
		c0.5,0.5,1.2,0.8,1.9,0.9c0.2,0,0.4,0.1,0.6,0.1c0.5,0,1,0.1,1.5,0.3c0.5,0.2,0.9,0.7,1,1.2c0.1,0.6-0.2,1.1-0.7,1.3
		C173.7,56.9,173.5,57,173.3,57z M162,34.7c-0.2,0.6-0.3,1.2-0.6,1.7c-0.4,0.8-0.6,1.7-0.6,2.5c0,1.5,1.3,2.4,2.3,3.3h0.1
		c1.2,0.9,2.3,1.9,3.1,3.1c0.9,1.2,1.5,2.7,1.6,4.2c0.1,0.8-0.1,1.5-0.3,2.2c0,0.1-0.1,0.1-0.1,0.1c-0.1,0.1-0.1,0.3-0.1,0.4
		c0.1,0.1,0.2,0.1,0.3,0.2c0.1,0,0.2,0.1,0.2,0.1s0.1,0.1,0.2,0.1c0.4,0.2,0.8,0.2,1.3,0.3c0.1,0,0.2,0.1,0.2,0.1
		c0-0.1,0-0.1,0.1-0.1c1.1-2.6,2.3-5.4,1.9-8.3l0,0c-0.3-2.1-1.3-4-2.8-5.5c-0.2-0.4-0.4-0.7-0.7-0.9c-0.1-0.1-0.3-0.2-0.4-0.3v-0.1
		c-0.6-0.4-1.1-0.7-1.7-1.1c-0.2-0.2-0.4-0.3-0.6-0.5C164.3,35.5,163.2,35,162,34.7z M147.9,39.4l0.5,0.5l0,0
		c1.9,1.9,3.9,3.8,6.4,4.8c1.4,0.7,2.9,0.8,4.4,0.5c0.7-0.2,1.3-0.5,1.8-0.8c0.3-0.2,0.6-0.4,0.8-0.7l0.1-0.1
		c0.1-0.1,0.2-0.2,0.2-0.2c0.1,0,0.1-0.1,0.1-0.1l0.1-0.1c0.1-0.1,0.1-0.1,0.2-0.1c0.1-0.1,0.1-0.1,0.1-0.2c0-0.1,0-0.1,0-0.2v-0.1
		c0,0,0,0,0-0.1c0-0.1,0-0.2,0-0.2c0.1,0,0.1-0.1,0.1-0.1l-0.2-0.2c-0.1-0.1-0.1-0.1-0.2-0.2h-0.1l-0.2-0.1c-1.4-1.1-2-2.3-1.9-3.5
		c0.1-0.4,0.1-0.7,0.2-1.1c-1,0.3-2,0.7-2.8,1.3c-1,0.7-2,1.1-3.2,1.4c-1.2,0.2-2.4-0.1-3.5-0.7c-0.2-0.1-0.5-0.3-0.7-0.5
		c-0.5-0.4-1.1-0.7-1.7-0.9c-0.1,0-0.1-0.1-0.1-0.1s-0.2,0-0.2,0l-0.1-0.1c-0.2-0.1-0.3-0.1-0.5,0c-0.1,0.1-0.2,0.1-0.2,0.1
		l-0.1,0.1c-0.1,0.1-0.1,0.2-0.1,0.3c0,0.1,0.1,0.1,0,0.2c0,0.1,0.1,0.2,0.2,0.3l0.1,0.1l0.2,0.2L147.9,39.4L147.9,39.4z
		 M171.5,31.2c0.1,0,0.2,0.1,0.3,0.1c1.5,1.7,3,3.2,4.8,4.5c0.2,0.1,0.3,0.2,0.4,0.3c0.3,0.2,0.5,0.4,0.8,0.6
		c0.3,0.2,0.4,0.5,0.3,0.8c0,0.1-0.1,0.2-0.1,0.2c-0.2,0.3-0.1,0.7,0.1,1c0.3,0.4,0.7,0.6,1.1,0.5l0,0c0.8-0.2,0.9-1.1,0.8-1.9
		c-0.2-0.8-0.6-1.4-1-2c-0.9-1.1-1.9-2.1-3-2.9c-1.2-0.9-2.2-1.9-3.1-3l-0.2,0.2c-0.4,0.6-0.9,1.2-1.4,1.8
		C171.3,31.3,171.4,31.2,171.5,31.2z M163.6,28.6c0.2,0,0.4,0.2,0.4,0.4c0,0.2-0.1,0.3-0.2,0.3c-0.5,0.4-1,0.7-1.6,1
		c-1,1.1-2,2.2-2.9,3.3c1.9,0,3.8,0.5,5.5,1.5c0.5,0.3,0.9,0.6,1.4,1c1.1,0.8,2.3,1.8,3.5,1.8c0.4,0,0.8-0.1,1.2-0.3l0,0
		c0.2-1.2,0.3-2.4,0.1-3.5s-0.5-2.3-0.9-3.4c-0.8-1.8-1.1-3.7-0.9-5.6c0.2-0.4,0.4-0.7,0.6-1l0.1-0.2c0.1,0.1,0.2,0.1,0.2,0.1
		c0.2,0.1,0.4,0.1,0.7,0.1h0.2c1.6,0,3-1.3,3.1-2.9c0.1-0.7-0.2-1.4-0.8-1.8c-0.1-0.1-0.2-0.2-0.2-0.3C173.1,19,173,19,173,19
		c-0.7-0.1-1.3,0.1-1.9,0.4l-0.1,0.1c-0.2,0.2-0.3,0.3-0.4,0.5c-0.2,0.3-0.3,0.6-0.5,1c-0.2,0.5-0.4,0.9-0.7,1.2
		c-0.4,0.5-0.9,1-1.5,1.2c0.1,0.1,0.1,0.1,0.1,0.1c-0.2,0.2-0.3,0.3-0.4,0.4c-0.4,0.3-0.8,0.7-1.1,1c-1.7,1-3.5,1.7-5.3,2.1
		c-0.3,0.1-0.6,0.1-1,0.2h-0.2c-0.1,0-0.2,0-0.3,0.1h-0.1c-0.1-0.1-0.1-0.1-0.1,0c0,0.1,0,0.1,0,0.1c-0.1,0.3-0.1,0.6-0.1,0.8v0.2
		c-0.1,0.4,0.2,0.7,0.5,0.9c0.3,0.4,0.8,0.6,1.2,0.6c0.1,0,0.2,0,0.3,0c0.1,0,0.1,0,0.1,0c0.3,0,0.6-0.1,0.8-0.3
		C162.9,29.1,163.3,28.8,163.6,28.6L163.6,28.6C163.6,28.6,163.6,28.6,163.6,28.6L163.6,28.6z M170,25.8L170,25.8
		c0,1.6,0.3,3.1,0.9,4.5l0.1,0.3c0.4-0.4,0.8-0.9,1.1-1.4c0.2-0.2,0.3-0.4,0.4-0.5c0-0.1,0.1-0.2,0.1-0.2c0-0.1,0-0.1,0-0.2
		c-0.1-0.1-0.2-0.2-0.3-0.3c-0.1-0.1-0.1-0.1-0.1-0.1l-0.4-0.4C171.1,27,170.5,26.4,170,25.8L170,25.8z"/>
	<path class="st2" d="M170,24.2l-1.9-1"/>
	<path class="st3" d="M156.5,26.6l1.9-0.1"/>
</g>
</svg>
