<?xml version="1.0" encoding="utf-8"?>
<!-- Generator: Adobe Illustrator 24.0.0, SVG Export Plug-In . SVG Version: 6.00 Build 0)  -->
<svg version="1.1" id="Layer_1" xmlns="http://www.w3.org/2000/svg" xmlns:xlink="http://www.w3.org/1999/xlink" x="0px" y="0px"
	 viewBox="0 0 400 100" style="enable-background:new 0 0 400 100;" xml:space="preserve">
<style type="text/css">
	.st0{opacity:0.1;fill:#4285F4;}
	.st1{opacity:0.8;fill:#4285F4;}
	.st2{fill:#4285F4;}
</style>
<rect class="st0" width="400" height="100"/>
<path class="st1" d="M325.3,106.2L325.3,106.2c-0.7,0-1.5-0.1-2.2-0.3c-0.2,0-0.3-0.1-0.5-0.1l-4.9-1c-0.4-0.1-0.8-0.1-1.2-0.2
	c-1.9-0.2-3.6-0.8-5.2-1.8c-0.4,0-0.8-0.1-1.2-0.2c-0.1,0-0.1-0.1-0.2-0.1h-0.1c-0.5,0-0.9-0.4-0.9-0.9c0-0.8,0.1-1.6,0.3-2.4
	l0.1-2.6c0-0.4,0.3-0.7,0.7-0.8c-0.2-0.7-0.1-1.4,0.1-2c0.4-1.1,0.6-2.2,0.6-3.3c0.1-2-0.2-4-0.9-5.8c-0.7-1.9-1.7-3.6-2.9-5.2
	c-1.7-2-3.6-3.8-5.7-5.4c0,1-0.9,2.2-2.6,3.7c-1.3,1.1-2.7,1.9-4.3,2.5c-1.7,0.6-3.5,0.9-5.3,0.9c-2,0-4-0.3-5.9-1
	c-6.8-2.2-12.2-7.2-17.4-12.1c-0.5-0.4-0.9-0.9-1.4-1.3v0.9c0,0.9,0.3,1.9,0.8,2.6c0.1,0.2,0.2,0.3,0.3,0.5c0.8,1.1,1.7,2.4,0.9,3.8
	c-0.4,0.8-1.2,1.3-2.1,1.3c-1.7,0-3.7-1.4-4.9-2.7c-1.1-1-1.9-2.2-2.5-3.6c-0.3-0.7-0.3-1.4-0.2-2.2c0.2-0.7,0.5-1.4,0.7-2.1
	c0.3-0.8,0.6-1.6,0.9-2.4c0.3-1,0.5-2.1,0.5-3.2c0.4-1.2,1-2.3,1.9-3.2c0.3-0.4,0.8-0.6,1.3-0.6c0.7,0,1.4,0.5,1.7,1.1
	c0.7,1.3,1.3,2.7,1.8,4.1c0.3-0.1,0.6-0.1,0.9-0.1c1.7,0.1,3.4,0.7,4.8,1.8c2.6,1.7,4.9,2.8,7.8,2.8c0.2,0,0.4,0,0.6,0
	c3-0.2,5.6-1.7,8-3.2c2.2-1.5,4.6-2.6,7.2-3.1h0.1c0.1,0,0.2,0,0.3,0.1c0.1-0.3,0.3-0.7,0.4-1c0.6-1.4,1-2.9,1.3-4.4
	c-1.5-0.3-3-0.4-4.6-0.4c-0.5,0-1.1,0-1.6,0.1c-0.3,0-0.6-0.2-0.8-0.4c-0.2-0.3-0.2-0.6,0-0.9c2.1-2.7,4.3-5.3,6.6-7.8
	c-0.9-0.2-1.7-0.5-2.4-1.1c-0.7-0.5-1.4-1.1-1.9-1.8c-0.1,0.1-0.3,0.1-0.4,0.2c-2.3,0.3-4.5,0.9-6.7,1.6c-2.9,1-6,1.6-9.1,1.7
	c-0.1,0-0.2,0-0.3,0c-0.4,2-3.1,3.3-5.3,3.3c-0.5,0-0.9-0.1-1.4-0.2c-1.3-0.4-2.3-1.5-2.6-2.9c-0.3-1.4,0.2-2.9,1.3-3.8
	c1.3-1,2.9-1.7,4.6-2h0.2l6-1.5l9.8-2.5c-0.1,0.5-0.2,1-0.1,1.5c0,0.1,0.1,0.2,0.1,0.2l-14.1,3.6c-0.2,0.1-0.5,0.1-0.8,0.2
	c-2.2,0.5-5.9,1.4-5.4,3.9c0.3,1.1,1.4,1.9,2.5,1.8c0.1,0,0.2,0,0.3,0c0.7-0.1,1.3-0.3,1.8-0.7c0.5-0.3,1.4-1,1.3-1.5
	c-0.1-0.3,0-0.5,0.2-0.7s0.4-0.3,0.7-0.3c0.4,0,0.8,0,1.2,0c3.1-0.1,6.1-0.7,9.1-1.7c2.2-0.7,4.4-1.2,6.6-1.5c0-0.2,0-0.3,0-0.5
	c0-0.6,0.1-1.3,0.2-1.9l0,0c0-0.2,0-0.4,0.1-0.6c0-0.3,0.1-0.6,0.1-0.9l0.6-1c0.5-0.3,1.1-0.4,1.6-0.4c0.2,0,0.4,0,0.6-0.1
	c0.8-0.1,1.6-0.3,2.4-0.4c1.8-0.4,3.6-0.9,5.3-1.5c3.2-1.2,6.3-2.7,9.1-4.7c-0.1,0-0.1,0-0.2,0c-1.7,0-2.3-1.5-3-2.9l-0.1-0.2
	l-0.8-1.8l-0.7-1.3c-0.1-0.2-0.3-0.5-0.4-0.7c-0.4-0.6-0.7-1.2-0.8-1.9v-0.1c-0.2-0.4-0.3-0.8-0.5-1.2c-0.2-0.8,0.3-1.5,0.9-2.1
	l0.2-0.2c0.6-0.7,1.3-1.4,2.1-2c2.7-2.3,6.2-3.5,9.8-3.5c0.4,0,0.8,0,1.1,0c2,0.2,3.9,0.9,5.4,2.2c1.6,1.2,2.5,3.1,2.7,5.1
	c0,0.2,0,0.4-0.2,0.6c0.9,0.9,1.5,2.1,1.7,3.4c0.5,3.1-0.8,6.2-3.3,8.1c-1.3,1-2.9,1.7-4.6,1.9c-0.9,0.1-1.7,0.1-2.6-0.1l-0.3-0.1
	c0.5,1.3,1.3,2.4,2.4,3.3c0.5,0.5,1.1,1,1.6,1.5c0.9,0.7,1.7,1.6,2.5,2.4c0.6,0.6,0.7,1.4,0.4,2.2c2,3.1,4.9,5.5,7.7,7.8
	c0.5,0.4,1.1,0.9,1.6,1.4c1.5,1.2,2.9,2.6,4.3,4.1c1.3,1.4,2.4,3.1,3.1,4.9c0.4,1.1,0.6,2.2,0.6,3.3s-0.3,2.2-0.9,3.2
	c-0.7,1.1-2,1.7-3.3,1.7c-0.1,0-0.2,0-0.3,0c-0.9,0-1.8-0.4-2.5-1S334,65,333.9,64c-0.1-0.5-0.1-1,0-1.5c0-0.1,0.1-0.2,0.1-0.3
	c0.1-0.2,0.2-0.5,0.2-0.7c-0.1-0.2-0.7-0.7-1.2-0.9c-0.2-0.1-0.3-0.2-0.4-0.2c-0.5-0.3-0.9-0.7-1.4-1.1c-3.8-3-7.3-6.2-10.5-9.8
	c1.1,4.2,1.2,8.7,0.4,12.9c0,0.3-0.3,0.6-0.7,0.6l-0.1,0.1c-1.6,0.8-3.4,1.1-5.2,0.7c3.8,3.5,6.3,8.2,7.2,13.3
	c0.5,3.5,0.3,7.1-0.7,10.5c-1,3.4-2.2,6.7-3.6,10c-0.2,0.4-0.5,0.6-0.9,0.6c-0.1,0-0.3,0-0.4-0.1c1.2,1.1,2.7,1.9,4.4,2
	c0.4,0,0.8,0.1,1.2,0.1c1.2,0,2.4,0.2,3.5,0.6c1.2,0.5,2,1.5,2.3,2.8c0.2,1.3-0.5,2.5-1.6,3C326.3,106.1,325.8,106.2,325.3,106.2z
	 M298.7,54.6L298.7,54.6c-0.3,1.4-0.7,2.7-1.3,4c-0.8,1.8-1.3,3.8-1.5,5.8c0,3.4,2.9,5.6,5.4,7.5l0.1,0.1c2.8,2,5.3,4.4,7.3,7.1
	c2.1,2.8,3.4,6.2,3.7,9.8c0.1,1.7-0.1,3.4-0.5,5.1c0,0.1-0.1,0.2-0.1,0.3c-0.2,0.3-0.2,0.6-0.1,1c0.2,0.1,0.4,0.2,0.5,0.4
	c0.2,0.1,0.4,0.1,0.6,0.2L313,96c0.9,0.3,1.9,0.5,2.9,0.6c0.2,0,0.4,0.1,0.5,0.2c0-0.1,0-0.2,0.1-0.2c1.4-3,2.5-6.1,3.5-9.3
	c1-3.2,1.3-6.5,0.9-9.8c-0.7-4.9-3-9.4-6.6-12.7c-0.4-0.8-0.9-1.5-1.6-2.1c-0.3-0.2-0.6-0.4-0.9-0.6V62c-1.4-0.8-2.7-1.7-4-2.7
	c-0.5-0.3-0.9-0.7-1.4-1C304.2,56.6,301.6,55.4,298.7,54.6L298.7,54.6z M265.7,62.7c-0.2,0-0.3,0-0.5,0.1s-0.3,0.1-0.4,0.3
	c-0.1,0.1-0.1,0.2-0.2,0.3c-0.1,0.2-0.2,0.4-0.2,0.7v0.3c0.1,0.2,0.2,0.4,0.3,0.6l0.2,0.1c0.1,0.1,0.3,0.2,0.4,0.3l0.4,0.3l0,0
	c0.4,0.4,0.9,0.8,1.3,1.2c4.5,4.3,9.1,8.7,14.8,11c2.3,1,4.7,1.5,7.2,1.5c1.1,0,2.2-0.1,3.2-0.4c1.5-0.4,3-1,4.3-1.9
	c0.6-0.5,1.2-1,1.8-1.5c0.1-0.1,0.1-0.1,0.2-0.2c0.1-0.1,0.3-0.3,0.4-0.4c0.1-0.1,0.2-0.2,0.3-0.3c0.1-0.1,0.2-0.2,0.3-0.3
	c0.1-0.1,0.2-0.3,0.2-0.4c0-0.1,0-0.2,0-0.4c0-0.1,0-0.1,0-0.2c0-0.1,0-0.2-0.1-0.3c0.1,0,0.2-0.1,0.3-0.1l-0.5-0.4l0,0
	c-0.1-0.1-0.2-0.3-0.4-0.3h-0.1l-0.3-0.3c-3.2-2.6-4.6-5.3-4.4-8.2c0.1-0.8,0.2-1.6,0.5-2.4c-2.3,0.6-4.6,1.6-6.6,3
	c-2.3,1.4-4.6,2.8-7.4,3.2c-2.8,0.4-5.7-0.2-8.1-1.5c-0.5-0.3-1-0.6-1.6-1c-1.2-0.9-2.5-1.6-3.9-2l-0.2-0.1c-0.2-0.1-0.3-0.1-0.5,0
	l-0.1-0.1C266,62.7,265.9,62.7,265.7,62.7z M321,46.7c0.2,0,0.4,0.1,0.6,0.3c3.4,3.8,7.1,7.3,11.2,10.5c0.4,0.3,0.7,0.6,1.1,0.8
	c0.6,0.4,1.1,0.8,1.6,1.2c0.6,0.4,0.9,1.2,0.7,1.9c0,0.2-0.1,0.4-0.1,0.6c-0.5,1.2,0.1,2.6,1.3,3.1c0.5,0.2,1,0.2,1.5,0.1
	c0.9-0.2,1.5-0.9,1.8-1.7c0.2-0.9,0.2-1.7,0-2.6c-0.4-1.7-1.2-3.3-2.4-4.7c-2-2.5-4.4-4.7-6.9-6.7c-2.7-2-5.1-4.4-7.2-7l-0.3,0.5
	c-1,1.4-2.1,2.8-3.3,4C320.7,46.7,320.9,46.7,321,46.7z M302.8,40.4c0.4,0,0.7,0.2,0.8,0.5c0.2,0.4,0,0.9-0.5,1.1
	c-1.2,0.8-2.4,1.6-3.7,2.2c-2.4,2.5-4.7,5-6.8,7.8c4.5,0,9,1.2,13,3.4c1.1,0.7,2.2,1.4,3.2,2.2c2.5,1.9,5.3,4.1,8.2,4.1
	c0.9,0,1.9-0.2,2.7-0.7l0,0c0.5-2.7,0.6-5.5,0.3-8.2c-0.4-2.7-1.1-5.3-2-7.8c-0.8-2.1-1.4-4.3-1.8-6.4c-0.5-2.2-0.5-4.4-0.1-6.6
	c0.4-0.7,0.9-1.5,1.3-2.2l0.3-0.5c0.2,0.1,0.4,0.1,0.5,0.2c0.5,0.1,1,0.2,1.5,0.2c0.1,0,0.2,0,0.3,0c1.8,0,3.6-0.7,5-2
	c1.3-1.2,2.1-2.9,2.2-4.7c0.2-1.6-0.5-3.2-1.8-4.2c-0.2-0.2-0.4-0.4-0.4-0.7c-0.1-0.1-0.2-0.2-0.4-0.3c-0.4,0-0.7,0-1,0
	c-1.2-0.1-2.4,0.3-3.4,0.9c-0.1,0.1-0.2,0.2-0.3,0.2c-0.3,0.3-0.6,0.7-0.8,1c-0.4,0.7-0.7,1.5-1,2.2c-0.4,1-1,2-1.7,2.8
	c-0.9,1.2-2,2.2-3.4,2.8c0.1,0.1,0.2,0.1,0.2,0.2c-0.3,0.3-0.6,0.5-0.8,0.8l-0.1,0.1c-0.9,0.7-1.7,1.5-2.5,2.3
	c-3.9,2.3-8.2,3.9-12.6,4.8c-0.8,0.2-1.5,0.3-2.2,0.4c-0.1,0-0.2,0-0.3,0c-0.2,0-0.4,0-0.6,0.1H294c-0.3,0.1-0.3,0.1-0.3,0.3
	c0,0.1,0,0.1,0,0.2c-0.1,0.6-0.1,1.2-0.2,1.8l0,0c0,0.2,0,0.4,0,0.6c-0.1,1,0.2,1.4,1,2c0.8,0.8,1.8,1.3,2.9,1.4
	c0.2,0,0.4,0,0.6-0.1c0.1,0,0.1,0,0.2,0c0.6,0,1.2-0.2,1.8-0.6c0.9-0.6,1.7-1.2,2.5-2l0.1,0.1C302.6,40.4,302.7,40.4,302.8,40.4z
	 M317.6,34c-0.2,3.6,1,7.1,2.1,10.5l0.2,0.5c0.9-1,1.8-2,2.6-3.1c0.1-0.1,0.1-0.2,0.2-0.3c0.2-0.3,0.4-0.6,0.6-0.9
	c0-0.2,0.1-0.3,0.2-0.5c0-0.1,0-0.3,0-0.4c-0.2-0.2-0.4-0.5-0.6-0.6c-0.1-0.1-0.2-0.1-0.2-0.2l-0.9-0.8c-0.3-0.3-0.6-0.6-1-0.9
	C319.6,36.2,318.6,35.2,317.6,34L317.6,34L317.6,34z"/>
<circle class="st2" cx="14.5" cy="14.2" r="4"/>
<circle class="st2" cx="31.5" cy="42.2" r="1"/>
<circle class="st2" cx="107.8" cy="18.2" r="1"/>
<circle class="st2" cx="94.7" cy="72.2" r="8"/>
<circle class="st2" cx="65" cy="29.7" r="2.5"/>
<circle class="st2" cx="21" cy="76.7" r="1.5"/>
<path class="st2" d="M312.2,29.2l0.7-1.4l5.3,1.7l-1.2,3.1L312.2,29.2z"/>
<path class="st2" d="M288.2,35.4l5.1-0.4l-0.5,1.9l-4.5,0.2L288.2,35.4z"/>
</svg>
